<svg width="32" height="32" viewBox="0 0 32 32" fill="none" xmlns="http://www.w3.org/2000/svg">
<path d="M26.9598 17.13C27.5154 16.505 27.5154 15.49 26.9598 14.865L21.271 8.46502C20.7154 7.84002 19.8132 7.84002 19.2576 8.46502C18.7021 9.09002 18.7021 10.105 19.2576 10.73L22.5198 14.4H13.1554C12.3687 14.4 11.7332 15.115 11.7332 16C11.7332 16.885 12.3687 17.6 13.1554 17.6H22.5198L19.2576 21.27C18.7021 21.895 18.7021 22.91 19.2576 23.535C19.8132 24.16 20.7154 24.16 21.271 23.535L26.9598 17.135V17.13ZM11.7332 8.00002C12.5198 8.00002 13.1554 7.28502 13.1554 6.40002C13.1554 5.51502 12.5198 4.80002 11.7332 4.80002H8.88874C6.53318 4.80002 4.62207 6.95002 4.62207 9.60002V22.4C4.62207 25.05 6.53318 27.2 8.88874 27.2H11.7332C12.5198 27.2 13.1554 26.485 13.1554 25.6C13.1554 24.715 12.5198 24 11.7332 24H8.88874C8.10207 24 7.46651 23.285 7.46651 22.4V9.60002C7.46651 8.71502 8.10207 8.00002 8.88874 8.00002H11.7332Z" fill="#1A4301"/>
</svg>
