<svg width="32" height="32" viewBox="0 0 32 32" fill="none" xmlns="http://www.w3.org/2000/svg">
<path d="M23.3142 9.60001C23.3142 13.135 20.04 16 16 16C11.96 16 8.68567 13.135 8.68567 9.60001C8.68567 6.06551 11.96 3.20001 16 3.20001C20.04 3.20001 23.3142 6.06551 23.3142 9.60001ZM15.1485 21.16L13.2571 18.4H18.7428L16.8514 21.16L18.7542 27.355L21.0114 19.295C25.4228 19.895 28.8 23.235 28.8 27.265C28.8 28.11 28.0114 28.8 27.0457 28.8H4.95538C3.98567 28.8 3.19995 28.11 3.19995 27.265C3.19995 23.235 6.57652 19.895 10.9885 19.295L13.2457 27.355L15.1485 21.16Z" fill="#1A4301"/>
</svg>
