<svg width="32" height="32" viewBox="0 0 32 32" fill="none" xmlns="http://www.w3.org/2000/svg">
<path d="M3.19995 28.8V26.6667H6.47106V3.2H20.3377V4.8H25.5644V26.6667H28.8V28.8H23.4311V6.93333H20.3377V28.8H3.19995ZM14.9688 17.4222C15.3718 17.4222 15.7096 17.2859 15.9822 17.0133C16.2548 16.7407 16.3911 16.403 16.3911 16C16.3911 15.597 16.2548 15.2593 15.9822 14.9867C15.7096 14.7141 15.3718 14.5778 14.9688 14.5778C14.5659 14.5778 14.2281 14.7141 13.9555 14.9867C13.6829 15.2593 13.5466 15.597 13.5466 16C13.5466 16.403 13.6829 16.7407 13.9555 17.0133C14.2281 17.2859 14.5659 17.4222 14.9688 17.4222Z" fill="#1A4301"/>
</svg>
