<svg width="32" height="32" viewBox="0 0 32 32" fill="none" xmlns="http://www.w3.org/2000/svg">
<path d="M3.19995 22.4V20.9867C3.19995 20.2933 3.56884 19.7333 4.30662 19.3067C5.0444 18.88 6.00884 18.6667 7.19995 18.6667C7.41328 18.6667 7.62217 18.6711 7.82662 18.68C8.03106 18.6889 8.23106 18.7111 8.42662 18.7467C8.2844 19.0489 8.17773 19.36 8.10662 19.68C8.03551 20 7.99995 20.3378 7.99995 20.6933V22.4H3.19995ZM9.59995 22.4V20.6933C9.59995 19.5378 10.1911 18.6 11.3733 17.88C12.5555 17.16 14.0977 16.8 16 16.8C17.92 16.8 19.4666 17.16 20.64 17.88C21.8133 18.6 22.4 19.5378 22.4 20.6933V22.4H9.59995ZM24 22.4V20.6933C24 20.3378 23.9644 20 23.8933 19.68C23.8222 19.36 23.7155 19.0489 23.5733 18.7467C23.7688 18.7111 23.9688 18.6889 24.1733 18.68C24.3777 18.6711 24.5866 18.6667 24.8 18.6667C25.9911 18.6667 26.9555 18.88 27.6933 19.3067C28.4311 19.7333 28.8 20.2933 28.8 20.9867V22.4H24ZM7.19995 17.8667C6.6844 17.8667 6.2444 17.6845 5.87995 17.32C5.51551 16.9556 5.33328 16.5156 5.33328 16C5.33328 15.4845 5.51551 15.0445 5.87995 14.68C6.2444 14.3156 6.6844 14.1333 7.19995 14.1333C7.71551 14.1333 8.15551 14.3156 8.51995 14.68C8.8844 15.0445 9.06662 15.4845 9.06662 16C9.06662 16.5156 8.8844 16.9556 8.51995 17.32C8.15551 17.6845 7.71551 17.8667 7.19995 17.8667ZM24.8 17.8667C24.2844 17.8667 23.8444 17.6845 23.48 17.32C23.1155 16.9556 22.9333 16.5156 22.9333 16C22.9333 15.4845 23.1155 15.0445 23.48 14.68C23.8444 14.3156 24.2844 14.1333 24.8 14.1333C25.3155 14.1333 25.7555 14.3156 26.12 14.68C26.4844 15.0445 26.6666 15.4845 26.6666 16C26.6666 16.5156 26.4844 16.9556 26.12 17.32C25.7555 17.6845 25.3155 17.8667 24.8 17.8667ZM16 16C15.1111 16 14.3555 15.6889 13.7333 15.0667C13.1111 14.4445 12.8 13.6889 12.8 12.8C12.8 11.9111 13.1111 11.1556 13.7333 10.5333C14.3555 9.91112 15.1111 9.60001 16 9.60001C16.8888 9.60001 17.6444 9.91112 18.2666 10.5333C18.8888 11.1556 19.2 11.9111 19.2 12.8C19.2 13.6889 18.8888 14.4445 18.2666 15.0667C17.6444 15.6889 16.8888 16 16 16Z" fill="#1A4301"/>
</svg>
