<svg width="32" height="32" viewBox="0 0 32 32" fill="none" xmlns="http://www.w3.org/2000/svg">
<path d="M3.19995 24.8V16.4214C3.19995 15.8738 3.30662 15.359 3.51995 14.8771C3.73328 14.3952 4.05328 14.0009 4.47995 13.6943V9.88285C4.47995 8.89714 4.80528 8.07023 5.45595 7.40214C6.10662 6.73404 6.91195 6.39999 7.87195 6.39999H13.632C14.1013 6.39999 14.5386 6.50952 14.944 6.72857C15.3493 6.94761 15.7013 7.24333 16 7.61571C16.2986 7.24333 16.6453 6.94761 17.04 6.72857C17.4346 6.50952 17.8666 6.39999 18.336 6.39999H24.096C25.056 6.39999 25.8666 6.73404 26.528 7.40214C27.1893 8.07023 27.52 8.89714 27.52 9.88285V13.6943C27.9466 14.0009 28.2666 14.3952 28.4799 14.8771C28.6933 15.359 28.7999 15.8738 28.7999 16.4214V24.8H26.88V22.1714H5.11995V24.8H3.19995ZM16.96 13.1357H25.6V9.88285C25.6 9.44476 25.456 9.08333 25.168 8.79856C24.88 8.5138 24.5226 8.37142 24.096 8.37142H18.24C17.8773 8.37142 17.5733 8.52476 17.328 8.83142C17.0826 9.13809 16.96 9.48857 16.96 9.88285V13.1357ZM6.39995 13.1357H15.04V9.88285C15.04 9.48857 14.9173 9.13809 14.672 8.83142C14.4266 8.52476 14.1226 8.37142 13.76 8.37142H7.87195C7.46662 8.37142 7.11995 8.51928 6.83195 8.81499C6.54395 9.11071 6.39995 9.46666 6.39995 9.88285V13.1357Z" fill="#1A4301"/>
</svg>
