<svg width="32" height="32" viewBox="0 0 32 32" fill="none" xmlns="http://www.w3.org/2000/svg">
<path d="M6.90243 28.8C5.86809 28.8 4.99242 28.4747 4.27543 27.824C3.55845 27.1733 3.19995 26.3787 3.19995 25.44V21.44H7.67819V3.2L9.79389 5.12L11.9096 3.2L13.99 5.12L16.1057 3.2L18.2214 5.12L20.3371 3.2L22.4528 5.12L24.5685 3.2L26.6842 5.12L28.8 3.2V25.44C28.8 26.3787 28.4415 27.1733 27.7245 27.824C27.0075 28.4747 26.1318 28.8 25.0975 28.8H6.90243ZM25.0975 26.88C25.5676 26.88 25.9496 26.7467 26.2435 26.48C26.5373 26.2133 26.6842 25.8667 26.6842 25.44V6.4H9.79389V21.44H23.5107V25.44C23.5107 25.8667 23.6576 26.2133 23.9515 26.48C24.2453 26.7467 24.6273 26.88 25.0975 26.88ZM11.6628 11.456V9.536H20.1256V11.456H11.6628ZM11.6628 15.744V13.824H20.1256V15.744H11.6628ZM23.4049 11.456C23.1228 11.456 22.876 11.36 22.6644 11.168C22.4528 10.976 22.3471 10.752 22.3471 10.496C22.3471 10.24 22.4528 10.016 22.6644 9.824C22.876 9.632 23.1228 9.536 23.4049 9.536C23.687 9.536 23.9338 9.632 24.1454 9.824C24.357 10.016 24.4628 10.24 24.4628 10.496C24.4628 10.752 24.357 10.976 24.1454 11.168C23.9338 11.36 23.687 11.456 23.4049 11.456ZM23.4049 15.584C23.1228 15.584 22.876 15.488 22.6644 15.296C22.4528 15.104 22.3471 14.88 22.3471 14.624C22.3471 14.368 22.4528 14.144 22.6644 13.952C22.876 13.76 23.1228 13.664 23.4049 13.664C23.687 13.664 23.9338 13.76 24.1454 13.952C24.357 14.144 24.4628 14.368 24.4628 14.624C24.4628 14.88 24.357 15.104 24.1454 15.296C23.9338 15.488 23.687 15.584 23.4049 15.584ZM6.86717 26.88H21.395V23.36H5.31565V25.44C5.31565 25.8667 5.46258 26.2133 5.75643 26.48C6.05027 26.7467 6.42052 26.88 6.86717 26.88Z" fill="#1A4301"/>
</svg>
