<svg width="32" height="32" viewBox="0 0 32 32" fill="none" xmlns="http://www.w3.org/2000/svg">
<path fill-rule="evenodd" clip-rule="evenodd" d="M3.19995 5.33335C3.19995 4.76755 3.3926 4.22493 3.73553 3.82485C4.07845 3.42477 4.54356 3.20001 5.02852 3.20001H26.9714C27.4563 3.20001 27.9215 3.42477 28.2644 3.82485C28.6073 4.22493 28.8 4.76755 28.8 5.33335C28.8 5.89914 28.6073 6.44176 28.2644 6.84184C27.9215 7.24192 27.4563 7.46668 26.9714 7.46668H5.02852C4.54356 7.46668 4.07845 7.24192 3.73553 6.84184C3.3926 6.44176 3.19995 5.89914 3.19995 5.33335ZM3.19995 16C3.19995 15.4342 3.3926 14.8916 3.73553 14.4915C4.07845 14.0914 4.54356 13.8667 5.02852 13.8667H26.9714C27.4563 13.8667 27.9215 14.0914 28.2644 14.4915C28.6073 14.8916 28.8 15.4342 28.8 16C28.8 16.5658 28.6073 17.1084 28.2644 17.5085C27.9215 17.9086 27.4563 18.1333 26.9714 18.1333H5.02852C4.54356 18.1333 4.07845 17.9086 3.73553 17.5085C3.3926 17.1084 3.19995 16.5658 3.19995 16ZM3.19995 26.6667C3.19995 26.1009 3.3926 25.5583 3.73553 25.1582C4.07845 24.7581 4.54356 24.5333 5.02852 24.5333H26.9714C27.4563 24.5333 27.9215 24.7581 28.2644 25.1582C28.6073 25.5583 28.8 26.1009 28.8 26.6667C28.8 27.2325 28.6073 27.7751 28.2644 28.1752C27.9215 28.5753 27.4563 28.8 26.9714 28.8H5.02852C4.54356 28.8 4.07845 28.5753 3.73553 28.1752C3.3926 27.7751 3.19995 27.2325 3.19995 26.6667Z" fill="#1A4301"/>
</svg>
