<svg width="32" height="32" viewBox="0 0 32 32" fill="none" xmlns="http://www.w3.org/2000/svg">
<path d="M28.928 4.688C29.8027 4.688 30.24 4.96533 30.24 5.52C30.24 5.66933 30.2293 5.776 30.208 5.84C30.144 6.05333 30.048 6.224 29.92 6.352C29.792 6.45867 29.6107 6.58667 29.376 6.736C29.056 6.928 28.7893 7.14133 28.576 7.376C28.3627 7.61067 28.1813 7.97333 28.032 8.464L24.064 22.672C23.7013 23.952 23.2427 24.848 22.688 25.36C22.1547 25.872 21.408 26.128 20.448 26.128C19.5947 26.128 18.88 25.8827 18.304 25.392C17.7493 24.88 17.2267 24.1013 16.736 23.056L11.904 12.88L9.216 22.224C9.152 22.5013 9.12 22.7467 9.12 22.96C9.12 23.2373 9.16267 23.472 9.248 23.664C9.35467 23.8347 9.49333 24.016 9.664 24.208C9.89867 24.4853 10.016 24.72 10.016 24.912C10.016 25.04 10.0053 25.136 9.984 25.2C9.89867 25.4987 9.70667 25.712 9.408 25.84C9.10933 25.9467 8.66133 26 8.064 26H4.576C3.70133 26 3.264 25.7227 3.264 25.168C3.264 25.0187 3.27467 24.912 3.296 24.848C3.36 24.6347 3.456 24.4747 3.584 24.368C3.712 24.24 3.89333 24.1013 4.128 23.952C4.448 23.76 4.71467 23.5467 4.928 23.312C5.14133 23.0773 5.32267 22.7147 5.472 22.224L9.536 7.856L9.024 6.8C8.81067 6.37333 8.704 6 8.704 5.68C8.704 5.01867 9.13067 4.688 9.984 4.688H14.72C15.4027 4.688 15.9147 4.848 16.256 5.168C16.6187 5.46667 17.0027 6.01067 17.408 6.8L22.08 16.176L24.288 8.464C24.352 8.16533 24.384 7.92 24.384 7.728C24.384 7.45067 24.3307 7.22667 24.224 7.056C24.1387 6.864 24.0107 6.672 23.84 6.48C23.6053 6.20267 23.488 5.968 23.488 5.776C23.488 5.648 23.4987 5.552 23.52 5.488C23.6053 5.18933 23.7973 4.98667 24.096 4.88C24.3947 4.752 24.8427 4.688 25.44 4.688H28.928Z" fill="white"/>
</svg>
